# File created by Blade
# Date/Time:  Tue Apr 07 21:25:57 2015
# Frame Rate: 120.000 fps
#------------------------------------------------------
:FULLY-SPECIFIED
:DEGREES
256
root 23.841261 32.560227 3.073734 52.223832 -84.978480 -30.349141
Spine 0.136401 -3.582893 2.235109
Head 9.562335 -1.622101 2.913988
LeftShoulder -8.562892 41.664514 12.394589
LeftArm 59.575905 17.466674 -72.234554
LeftForeArm -6.969177 0.000000 16.531384
LeftHand 8.055632 -0.000000 -6.058933
LeftHandThumb1 -26.253704 0.000000 33.147579
RightShoulder -0.727391 -5.997609 -16.112723
RightArm 19.549110 -20.979314 84.447921
RightForeArm 4.544475 -0.000000 15.300720
RightHand 5.426158 -0.000000 5.371120
RightHandThumb1 -24.326973 -0.000000 -32.862282
LeftUpLeg -41.676521 -6.105152 5.961784
LeftLeg 24.029079 -0.000000 -0.000000
LeftFoot -8.582001 5.164931 -26.257885
LeftToeBase -14.281939 -0.000000 0.000000
RightUpLeg -23.241328 -0.225226 5.567119
RightLeg 3.965936 -0.000000 -0.000000
RightFoot -7.121344 -9.117951 10.600959
RightToeBase -3.944570 -0.000000 0.000000
257
root 23.797039 32.560816 3.101666 51.803162 -85.007080 -29.894322
Spine 0.222158 -3.639838 2.252151
Head 9.283348 -1.583400 2.833216
LeftShoulder -8.464802 41.676126 12.440107
LeftArm 59.576310 17.645415 -71.999668
LeftForeArm -6.867608 0.000000 16.559569
LeftHand 7.898533 -0.000000 -6.173683
LeftHandThumb1 -26.253704 0.000000 33.147579
RightShoulder -0.598107 -5.833973 -16.278975
RightArm 19.599091 -21.090288 84.387542
RightForeArm 4.519320 -0.000000 15.362678
RightHand 5.373775 -0.000000 5.280601
RightHandThumb1 -24.326973 -0.000000 -32.862282
LeftUpLeg -41.369105 -6.305404 5.945431
LeftLeg 22.542155 -0.000000 -0.000000
LeftFoot -7.605000 5.723433 -26.983305
LeftToeBase -13.368235 -0.000000 0.000000
RightUpLeg -23.388924 -0.145110 5.448759
RightLeg 4.356759 -0.000000 -0.000000
RightFoot -7.337170 -9.276462 10.682412
RightToeBase -3.834250 -0.000000 0.000000
258
root 23.744979 32.559136 3.133797 51.909179 -85.091494 -30.003271
Spine 0.319436 -3.630911 2.255504
Head 9.047636 -1.521519 2.754117
LeftShoulder -8.389150 41.764500 12.447555
LeftArm 59.669812 17.800582 -71.720004
LeftForeArm -6.795859 -0.000000 16.531461
LeftHand 7.550116 -0.000000 -6.009929
LeftHandThumb1 -26.253704 0.000000 33.147579
RightShoulder -0.470817 -5.669739 -16.400866
RightArm 19.664890 -21.226656 84.272418
RightForeArm 4.447294 -0.000000 15.386938
RightHand 5.341817 -0.000000 5.407339
RightHandThumb1 -24.326973 -0.000000 -32.862282
LeftUpLeg -41.030531 -6.312993 5.788152
LeftLeg 21.415824 -0.000000 -0.000000
LeftFoot -6.688933 6.704251 -27.333677
LeftToeBase -12.083520 -0.000000 0.000000
RightUpLeg -23.522948 0.040991 5.296457
RightLeg 4.825179 -0.000000 -0.000000
RightFoot -7.598712 -9.475912 10.736151
RightToeBase -3.804408 -0.000000 0.000000
259
root 23.687592 32.554342 3.167174 52.580046 -85.181787 -30.710053
Spine 0.422388 -3.616898 2.282157
Head 8.857500 -1.401978 2.686498
LeftShoulder -8.443613 41.952654 12.337953
LeftArm 59.957843 17.923230 -71.362230
LeftForeArm -6.827687 -0.000000 16.378223
LeftHand 7.459774 -0.000000 -5.795088
LeftHandThumb1 -26.253704 0.000000 33.147579
RightShoulder -0.329191 -5.540086 -16.507016
RightArm 19.786261 -21.381827 84.128759
RightForeArm 4.295979 -0.000000 15.369746
RightHand 5.425648 -0.000000 5.465688
RightHandThumb1 -24.326973 -0.000000 -32.862282
LeftUpLeg -40.707945 -6.097453 5.488833
LeftLeg 20.707792 -0.000000 -0.000000
LeftFoot -5.626734 8.000175 -26.602532
LeftToeBase -10.340508 -0.000000 0.000000
RightUpLeg -23.656291 0.243744 5.177159
RightLeg 5.382391 -0.000000 -0.000000
RightFoot -7.891459 -9.619838 10.762077
RightToeBase -3.840626 -0.000000 0.000000
260
root 23.624935 32.548752 3.201704 54.068309 -85.280628 -32.232853
Spine 0.491135 -3.560296 2.350169
Head 8.728136 -1.295778 2.600654
LeftShoulder -8.265869 41.828733 12.433689
LeftArm 59.767881 18.115229 -71.245765
LeftForeArm -6.660528 -0.000000 16.287230
LeftHand 7.367096 0.000000 -6.268074
LeftHandThumb1 -26.253704 0.000000 33.147579
RightShoulder -0.183645 -5.433681 -16.590011
RightArm 19.920843 -21.540855 83.949555
RightForeArm 4.091447 -0.000000 15.367970
RightHand 5.382145 0.000000 5.526017
RightHandThumb1 -24.326973 -0.000000 -32.862282
LeftUpLeg -40.408731 -5.773918 5.174745
LeftLeg 20.353257 -0.000000 -0.000000
LeftFoot -4.500545 9.128997 -24.856233
LeftToeBase -7.422742 -0.000000 0.000000
RightUpLeg -23.829206 0.526905 5.080482
RightLeg 6.040991 -0.000000 -0.000000
RightFoot -8.233190 -9.773956 10.872785
RightToeBase -3.836721 -0.000000 0.000000
261
root 23.558254 32.541285 3.239133 55.774816 -85.413069 -33.977995
Spine 0.536269 -3.494118 2.386775
Head 8.649301 -1.136427 2.529855
LeftShoulder -8.246414 41.855435 12.395256
LeftArm 59.845759 18.323632 -70.952647
LeftForeArm -6.622586 -0.000000 15.979318
LeftHand 7.988667 0.000000 -6.280492
LeftHandThumb1 -26.253704 0.000000 33.147579
RightShoulder -0.052654 -5.366609 -16.655391
RightArm 20.122552 -21.756440 83.731958
RightForeArm 3.861820 -0.000000 15.313573
RightHand 5.336275 -0.000000 5.472388
RightHandThumb1 -24.326973 -0.000000 -32.862282
LeftUpLeg -40.084277 -5.414999 4.815340
LeftLeg 20.219393 -0.000000 -0.000000
LeftFoot -3.364407 9.296479 -21.571224
LeftToeBase -7.543712 -0.000000 0.000000
RightUpLeg -24.033526 0.801367 4.975219
RightLeg 6.792999 -0.000000 -0.000000
RightFoot -8.609027 -9.900692 10.912875
RightToeBase -3.826460 -0.000000 0.000000
262
root 23.489594 32.532720 3.275488 58.207753 -85.539780 -36.451428
Spine 0.567118 -3.416363 2.425773
Head 8.587476 -0.991351 2.537741
LeftShoulder -8.260814 41.851332 12.406883
LeftArm 59.904015 18.567593 -70.724627
LeftForeArm -6.485925 -0.000000 15.702398
LeftHand 7.862623 0.000000 -5.867624
LeftHandThumb1 -26.253704 0.000000 33.147579
RightShoulder 0.074215 -5.280490 -16.671326
RightArm 20.304441 -21.960917 83.502652
RightForeArm 3.651695 -0.000000 15.285299
RightHand 5.352449 -0.000000 5.610193
RightHandThumb1 -24.326973 -0.000000 -32.862282
LeftUpLeg -39.791394 -4.889326 4.369942
LeftLeg 20.334861 -0.000000 -0.000000
LeftFoot -2.174125 8.506799 -17.018571
LeftToeBase -11.637512 -0.000000 0.000000
RightUpLeg -24.295118 1.127522 4.894266
RightLeg 7.667081 -0.000000 -0.000000
RightFoot -9.004311 -10.007040 10.971786
RightToeBase -3.894240 -0.000000 0.000000
263
root 23.418501 32.524226 3.307951 61.312705 -85.652054 -39.580783
Spine 0.569712 -3.299505 2.469513
Head 8.532614 -0.837301 2.593437
LeftShoulder -8.236861 41.898637 12.457056
LeftArm 59.997246 18.765121 -70.530244
LeftForeArm -6.408853 -0.000000 15.419293
LeftHand 7.688366 0.000000 -5.636472
LeftHandThumb1 -26.253704 0.000000 33.147579
RightShoulder 0.123537 -5.158064 -16.650519
RightArm 20.450239 -22.248448 83.263410
RightForeArm 3.458095 0.000000 15.275050
RightHand 5.270809 -0.000000 5.552117
RightHandThumb1 -24.326973 -0.000000 -32.862282
LeftUpLeg -39.448387 -4.394687 4.028963
LeftLeg 20.287437 -0.000000 -0.000000
LeftFoot -1.500033 8.022999 -14.246650
LeftToeBase -14.193240 -0.000000 0.000000
RightUpLeg -24.642579 1.466854 4.859974
RightLeg 8.682397 -0.000000 -0.000000
RightFoot -9.400514 -10.131728 11.027225
RightToeBase -4.100817 -0.000000 0.000000
264
root 23.350401 32.516734 3.337186 64.699855 -85.773680 -42.941312
Spine 0.512918 -3.192023 2.466744
Head 8.477093 -0.672225 2.706585
LeftShoulder -8.176548 42.003606 12.555349
LeftArm 60.052999 18.881397 -70.430369
LeftForeArm -6.326091 -0.000000 15.218926
LeftHand 7.496953 0.000000 -5.653861
LeftHandThumb1 -26.253704 0.000000 33.147579
RightShoulder 0.174189 -5.054752 -16.596890
RightArm 20.623649 -22.485714 83.053655
RightForeArm 3.288373 -0.000000 15.237542
RightHand 5.343390 -0.000000 5.692445
RightHandThumb1 -24.326973 -0.000000 -32.862282
LeftUpLeg -39.096747 -4.070456 3.908925
LeftLeg 19.853584 -0.000000 -0.000000
LeftFoot -1.871133 8.358990 -14.446686
LeftToeBase -13.041607 -0.000000 0.000000
RightUpLeg -25.108581 1.854404 4.797154
RightLeg 9.817951 -0.000000 -0.000000
RightFoot -9.820320 -10.242233 11.137063
RightToeBase -4.177848 -0.000000 0.000000
265
root 23.288011 32.511333 3.363183 67.980351 -85.891110 -46.141501
Spine 0.412999 -3.107162 2.408052
Head 8.374289 -0.521691 2.890908
LeftShoulder -8.238592 41.965493 12.613413
LeftArm 60.133399 19.106988 -70.218251
LeftForeArm -6.281583 -0.000000 14.893701
LeftHand 7.501671 -0.000000 -5.766392
LeftHandThumb1 -26.253704 0.000000 33.147579
RightShoulder 0.183500 -4.914039 -16.511510
RightArm 20.739780 -22.558916 82.955273
RightForeArm 2.948641 -0.000000 15.222093
RightHand 5.205026 0.000000 5.711402
RightHandThumb1 -24.326973 -0.000000 -32.862282
LeftUpLeg -38.748936 -3.888748 3.898492
LeftLeg 19.118050 -0.000000 -0.000000
LeftFoot -2.213247 8.950293 -15.089205
LeftToeBase -11.183773 -0.000000 0.000000
RightUpLeg -25.732085 2.242899 4.721817
RightLeg 11.138063 -0.000000 -0.000000
RightFoot -10.221807 -10.396284 11.204318
RightToeBase -4.389516 -0.000000 0.000000
266
root 23.222088 32.507854 3.398916 71.063313 -86.132730 -49.151146
Spine 0.310184 -2.990578 2.197714
Head 8.307338 -0.385572 3.089352
LeftShoulder -8.323506 41.960982 12.622874
LeftArm 60.294414 19.305178 -69.911263
LeftForeArm -6.368054 -0.000000 14.537338
LeftHand 7.476379 -0.000000 -6.045644
LeftHandThumb1 -26.253704 0.000000 33.147579
RightShoulder 0.172243 -4.795320 -16.384959
RightArm 20.821806 -22.665147 82.837895
RightForeArm 2.689527 -0.000000 15.281883
RightHand 5.161556 -0.000000 5.564251
RightHandThumb1 -24.326973 -0.000000 -32.862282
LeftUpLeg -38.303207 -3.747067 3.737552
LeftLeg 18.207363 -0.000000 -0.000000
LeftFoot -2.011308 9.174649 -14.595926
LeftToeBase -11.400960 -0.000000 0.000000
RightUpLeg -26.445144 2.663801 4.478502
RightLeg 12.658061 -0.000000 -0.000000
RightFoot -10.685178 -10.509125 11.337908
RightToeBase -4.678895 -0.000000 0.000000
267
root 23.159069 32.503452 3.438789 74.123328 -86.467964 -52.132170
Spine 0.203119 -2.889288 1.840240
Head 8.193574 -0.247782 3.363138
LeftShoulder -8.415995 42.017355 12.703945
LeftArm 60.473930 19.473743 -69.673961
LeftForeArm -6.337514 0.000000 14.270776
LeftHand 7.275038 -0.000000 -5.841005
LeftHandThumb1 -26.253704 0.000000 33.147579
RightShoulder 0.157625 -4.699032 -16.236303
RightArm 20.936244 -22.703628 82.761451
RightForeArm 2.498576 -0.000000 15.327190
RightHand 5.178993 -0.000000 5.657041
RightHandThumb1 -24.326973 -0.000000 -32.862282
LeftUpLeg -37.863033 -3.566562 3.445522
LeftLeg 17.356332 -0.000000 -0.000000
LeftFoot -1.860035 9.196969 -14.351968
LeftToeBase -11.511381 -0.000000 0.000000
RightUpLeg -27.272925 3.035910 4.135841
RightLeg 14.366578 -0.000000 -0.000000
RightFoot -11.155335 -10.555073 11.489034
RightToeBase -5.080220 -0.000000 0.000000
268
root 23.100380 32.498108 3.478751 76.799337 -86.828302 -54.725100
Spine 0.103273 -2.825053 1.419850
Head 8.063631 -0.107449 3.650000
LeftShoulder -8.820612 42.331241 12.498268
LeftArm 61.266237 19.654586 -68.910744
LeftForeArm -6.493770 -0.000000 13.802934
LeftHand 6.784372 -0.000000 -6.052794
LeftHandThumb1 -26.253704 0.000000 33.147579
RightShoulder 0.134073 -4.618549 -16.108288
RightArm 21.000007 -22.639848 82.783633
RightForeArm 2.235236 -0.000000 15.489856
RightHand 5.049196 -0.000000 5.554809
RightHandThumb1 -24.326973 -0.000000 -32.862282
LeftUpLeg -37.427849 -3.404213 3.128695
LeftLeg 16.537779 -0.000000 -0.000000
LeftFoot -1.881876 9.225079 -14.668694
LeftToeBase -10.568260 -0.000000 0.000000
RightUpLeg -28.200276 3.316452 3.757332
RightLeg 16.235083 -0.000000 -0.000000
RightFoot -11.584348 -10.546448 11.762892
RightToeBase -5.598869 -0.000000 0.000000
